<?xml version="1.0" encoding="UTF-8" standalone="no"?>
<!DOCTYPE svg PUBLIC "-//W3C//DTD SVG 1.1//EN" "http://www.w3.org/Graphics/SVG/1.1/DTD/svg11.dtd">
<svg width="100%" height="100%" viewBox="0 0 80 50" version="1.1" xmlns="http://www.w3.org/2000/svg" xmlns:xlink="http://www.w3.org/1999/xlink" xml:space="preserve" xmlns:serif="http://www.serif.com/" style="fill-rule:evenodd;clip-rule:evenodd;stroke-linejoin:round;stroke-miterlimit:2;">
    <g transform="matrix(1,0,0,1,-68.5,-11)">
        <g transform="matrix(1,0,0,1,70.365124,-4.63615)">
            <path d="M17.545,34.925L23,37.657C27.955,40.139 32.234,43.203 32.234,50.152C32.234,57.932 26.189,63.394 16.031,63.394C6.459,63.394 1.59,58.096 -0.005,52.47L8.725,47.67C9.482,50.401 11.747,53.958 16.112,53.958C18.882,53.958 20.729,52.55 20.729,50.068C20.729,48.332 19.553,47.173 15.945,45.516L11.328,43.283C6.459,40.965 1.928,38.154 1.928,30.538C1.928,23.668 8.225,17.878 16.536,17.878C24.847,17.878 29.716,22.181 32.32,27.315L24.176,32.115C22.581,29.22 20.315,27.066 16.788,27.066C14.437,27.066 12.676,28.309 12.676,30.459C12.676,32.364 13.937,33.189 17.545,34.925Z" style="fill:white;fill-rule:nonzero;"/>
        </g>
        <g transform="matrix(1,0,0,1,-70.360119,-15.252995)">
            <rect x="180.063" y="62.066" width="36.937" height="9.929" style="fill:white;fill-rule:nonzero;"/>
        </g>
    </g>
</svg>
