<svg width="217" height="72" viewBox="0 0 217 72" fill="none" xmlns="http://www.w3.org/2000/svg">
<g clip-path="url(#clip0_5_8)">
<path d="M17.5451 34.9255L22.9999 37.6565C27.9551 40.1387 32.2342 43.203 32.2342 50.1523C32.2342 57.9323 26.189 63.3942 16.0313 63.3942C6.45898 63.3942 1.58954 58.0964 -0.00500488 52.4703L8.72465 47.67C9.48156 50.401 11.7472 53.9577 16.1121 53.9577C18.8823 53.9577 20.7292 52.5499 20.7292 50.0677C20.7292 48.3316 19.5535 47.1726 15.9455 45.5161L11.3284 43.2826C6.45898 40.9645 1.92763 38.1539 1.92763 30.5381C1.92763 23.6684 8.22509 17.8781 16.5359 17.8781C24.8468 17.8781 29.7162 22.181 32.3199 27.3146L24.1756 32.1149C22.5811 29.2198 20.3154 27.0659 16.7882 27.0659C14.4368 27.0659 12.6757 28.3095 12.6757 30.4585C12.6757 32.3637 13.9372 33.1894 17.5451 34.9255Z" fill="white"/>
<path d="M57.3331 63.3942C46.6709 63.3942 38.8646 56.44 38.8646 46.1827V19.2013H50.6169V46.511C50.6169 50.3164 53.4729 53.132 57.2474 53.132C61.0218 53.132 63.7971 50.3164 63.7971 46.511V19.2013H75.5494V46.511C75.5494 56.5245 67.9096 63.3942 57.3331 63.3942Z" fill="white"/>
<path d="M103.59 17.8781C109.383 17.8781 114.671 20.1116 116.856 23.7529H117.194C117.109 23.1759 117.028 22.3452 117.028 20.0271V0H128.614V62.066H117.871V60.1608C117.871 58.3402 117.956 57.0966 118.037 56.2708H117.699C114.929 60.8224 109.474 63.3892 103.091 63.3892C90.748 63.3892 82.0184 54.0373 82.0184 40.6312C82.0184 27.2251 91.0861 17.8731 103.595 17.8731L103.59 17.8781ZM117.442 40.467C117.442 33.0999 112.486 27.9713 105.604 27.9713C98.7208 27.9713 93.8513 33.0999 93.8513 40.467C93.8513 47.8342 98.8066 53.0474 105.604 53.0474C112.401 53.0474 117.442 47.9187 117.442 40.467Z" fill="white"/>
<path d="M156.306 63.3942C145.644 63.3942 137.838 56.44 137.838 46.1827V19.2013H149.59V46.511C149.59 50.3164 152.446 53.132 156.22 53.132C159.995 53.132 162.77 50.3164 162.77 46.511V19.2013H174.522V46.511C174.522 56.5245 166.883 63.3942 156.306 63.3942Z" fill="white"/>
<path d="M180.063 62.066H217V71.995H180.063V62.066Z" fill="white"/>
</g>
<defs>
<clipPath id="clip0_5_8">
<rect width="217" height="72" fill="white"/>
</clipPath>
</defs>
</svg>
